<svg width="242" height="29" viewBox="0 0 242 29" fill="none" xmlns="http://www.w3.org/2000/svg">
<g clip-path="url(#clip0_157_348)">
<path d="M4.4992 27.5135C4.19926 27.5135 3.91359 27.485 3.62793 27.4278C1.21407 26.6417 0 25.3696 0 23.6402L0.0285664 22.2109C0.0428496 21.2962 1.32834 19.238 3.88503 16.0508C4.32781 15.5219 4.54205 15.2075 4.54205 15.136L4.24211 14.9645C3.91359 14.8216 3.51366 14.6215 3.0566 14.3499C2.59954 14.0927 2.22818 13.8497 1.97108 13.621C1.71398 13.3923 1.58543 13.0207 1.58543 12.5062C1.58543 11.3342 2.14248 9.89058 3.25657 8.20404C4.37065 6.5032 5.65614 5.00246 7.12731 3.70182C8.59848 2.40118 9.92681 1.64367 11.1123 1.45786C11.3837 1.47215 11.7265 1.5722 12.155 1.72942C12.5835 1.90094 13.012 2.08674 13.4262 2.31543C13.8404 2.52982 14.1546 2.74421 14.3546 2.94431C14.526 3.18728 14.6117 3.60177 14.6117 4.21636C14.5974 4.5308 14.5831 4.85954 14.5546 5.20256C14.526 5.54559 14.4689 5.94579 14.3832 6.41745C14.2832 6.88911 14.1689 7.3036 14.0118 7.67521C13.869 8.04682 13.6976 8.24692 13.5262 8.2755C13.2834 8.23263 12.9977 8.13258 12.6263 7.97536C12.2693 7.80384 11.9265 7.61804 11.6265 7.40365C11.3266 7.18926 11.1695 7.03204 11.1695 6.91769C11.5979 5.25973 11.8122 4.27353 11.8122 3.93051C11.8122 3.84475 11.7836 3.78758 11.7122 3.78758C11.5122 3.78758 11.0552 4.10202 10.341 4.71661C9.62687 5.3312 8.91271 6.00296 8.21283 6.74618C6.75595 8.31838 5.68471 9.80483 5.0134 11.2198C4.52777 12.2203 4.28496 12.8778 4.28496 13.2065C4.28496 13.278 4.32781 13.3208 4.42779 13.3208C4.68488 13.3208 5.0991 13.2351 5.67042 13.0493C6.25603 12.8635 6.82736 12.6634 7.38441 12.4347C7.94145 12.206 8.34138 12.0202 8.59848 11.863C9.09839 11.62 9.44118 11.5057 9.64115 11.5057C9.79826 11.5057 10.0982 11.6057 10.541 11.8058C10.9838 12.0059 11.4123 12.2346 11.8265 12.4633C12.2407 12.7063 12.4407 12.8921 12.4407 13.0493C12.4407 13.2208 12.2407 13.3208 11.855 13.378C10.741 13.6925 9.5126 14.5071 8.18427 15.8078C6.85593 17.1084 5.64186 18.6092 4.55634 20.2814C3.32798 22.1538 2.71381 23.726 2.71381 24.9837C2.71381 25.4411 2.84235 25.6841 3.11373 25.6984C3.38511 25.6984 3.85646 25.5554 4.52777 25.2839C6.5417 24.4406 8.55563 23.1828 10.5838 21.5392C12.6121 19.8955 14.3546 17.9803 15.8115 15.8078C16.04 15.4791 16.24 15.3075 16.3971 15.3075C16.5685 15.3075 16.997 15.4791 17.6969 15.8364C18.3825 16.1365 18.7395 16.4081 18.7395 16.6653C18.7253 16.9226 18.3967 17.4515 17.754 18.2661L17.5255 18.5949C15.4258 21.2104 13.1262 23.3401 10.641 24.998C8.1557 26.656 6.1132 27.485 4.52777 27.485" fill="#38932D"/>
<path d="M32.6371 24.2977C32.4942 24.2977 32.2943 24.2548 32.0515 24.1548C31.7944 24.069 31.1516 23.7546 30.1232 23.24C29.6805 22.3396 29.3234 21.4248 29.052 20.5244C28.7806 19.6097 28.5664 18.4091 28.4093 16.9226L28.2664 15.7649C27.538 17.6087 26.7238 19.9241 25.7954 22.7255C25.4955 23.7546 25.1955 24.2691 24.8813 24.2691C24.6242 24.2691 24.1957 24.0976 23.5673 23.7689C23.0959 23.583 22.7531 23.3972 22.5389 23.1828C22.3246 22.9827 22.1961 22.6826 22.1532 22.2681C22.039 21.4963 21.9818 20.0241 21.9818 17.8517C21.9818 13.3066 22.1104 11.034 22.3818 11.034C22.4817 11.034 22.6817 11.0912 22.9959 11.2198C23.3102 11.3342 23.6387 11.4771 23.9672 11.6343C24.2957 11.7915 24.5528 11.9487 24.7242 12.0917C24.7813 12.1345 24.8242 12.3061 24.8385 12.6205L24.7242 16.4367C26.3382 12.692 27.438 10.8339 28.0236 10.8339C28.2236 10.8768 28.5235 10.9911 28.9235 11.1769C29.3234 11.377 29.6805 11.5771 30.0375 11.7915C30.3803 12.0059 30.5803 12.1631 30.6374 12.2918C30.6946 12.4061 30.7374 12.7063 30.7945 13.1922C30.8374 13.6782 30.8945 14.2499 30.9374 14.9359C31.0802 17.1227 31.2802 18.8664 31.523 20.1671C31.7801 21.4677 32.1229 22.5826 32.5799 23.5259C32.7228 23.7974 32.7942 24.0118 32.7942 24.1548C32.7942 24.2262 32.7513 24.2834 32.6799 24.3263" fill="#38932D"/>
<path d="M48.3486 29C48.0772 29 47.6201 28.8285 46.9488 28.4855C46.2775 28.1424 45.9062 27.8995 45.8347 27.7565C45.6491 27.2849 45.5491 25.9556 45.5491 23.7831C45.5491 22.5683 45.6062 20.2242 45.7348 16.7654L45.7062 16.551C45.7062 16.551 45.6348 16.6368 45.5348 16.8226C44.135 19.4239 42.8638 21.3391 41.7355 22.5826C40.5928 23.826 39.6787 24.4406 38.9645 24.4406C38.6217 24.4406 38.0933 24.2834 37.3934 23.969C36.6935 23.6545 36.165 23.3544 35.8365 23.0542C35.4937 22.5683 35.3223 21.9394 35.3223 21.1533C35.3223 20.553 35.4794 19.5811 35.8079 18.2804C36.1365 16.9798 36.7792 15.5648 37.7647 14.0355C38.7503 12.5205 39.693 11.7629 40.6071 11.7629C40.9213 11.7629 41.5498 12.0059 42.4925 12.5062C43.378 12.9349 43.8494 13.135 43.9065 13.135C44.1779 12.8635 44.6492 11.4771 45.3205 8.99014C45.5919 8.01824 45.849 6.86052 46.0918 5.517C46.249 4.50222 46.4489 4.00197 46.6774 4.00197C46.8631 4.00197 47.2059 4.1449 47.6916 4.41646C48.22 4.65944 48.5914 4.84524 48.7771 4.98817C48.9628 5.1311 49.0627 5.30261 49.0627 5.50271L49.0342 6.5175C48.5485 14.0355 48.3057 20.1385 48.3057 24.8265C48.3057 26.5559 48.3629 27.6994 48.4771 28.2568C48.52 28.4283 48.5485 28.5569 48.5485 28.6713C48.5485 28.8571 48.4914 28.9714 48.3629 29M38.1647 22.0108C38.1647 22.0108 38.4361 21.7822 38.8503 21.382C40.5214 19.6525 42.0497 17.2656 43.4494 14.2356C42.7496 13.8926 42.3211 13.7068 42.2068 13.7068C41.9497 13.7068 41.5641 14.0355 41.0356 14.693C40.5071 15.3504 39.9644 16.2509 39.4359 17.4086C38.6789 19.0094 38.2218 20.4958 38.0647 21.8822C38.0647 21.9537 38.1075 21.9965 38.179 22.0251L38.1647 22.0108Z" fill="#38932D"/>
<path d="M58.0469 7.97536C57.9183 7.97536 57.7041 7.90389 57.4041 7.76097C57.1042 7.61804 56.8042 7.46082 56.5186 7.3036C56.2329 7.14638 56.0329 7.03204 55.933 6.94628C55.8187 6.86052 55.7616 6.76047 55.7616 6.63184C55.7616 6.44603 55.9472 5.98866 56.3186 5.24544C56.69 4.50222 57.0899 3.77329 57.5327 3.03006C57.8041 2.58699 57.9755 2.3726 58.0754 2.3726C58.1468 2.3726 58.3182 2.42977 58.5753 2.54411C58.8324 2.65845 59.1038 2.77279 59.3895 2.91572C59.6752 3.05865 59.9322 3.18728 60.1608 3.31592C60.3893 3.44455 60.5179 3.53031 60.5321 3.5446C60.5607 3.57319 60.575 3.60177 60.5893 3.64465C60.5893 3.81616 60.3893 4.20207 60.0037 4.80237C59.5609 5.54559 59.1752 6.24593 58.8467 6.93199C58.5753 7.63233 58.3182 7.97536 58.0469 7.97536ZM56.0044 25.0123C56.0044 25.0123 55.7901 24.9694 55.533 24.8694C54.019 24.2262 53.2049 23.6831 53.062 23.24C52.7764 22.4253 52.6335 21.0532 52.6335 19.1237C52.6335 17.3371 52.7335 15.6792 52.9192 14.1641C53.1049 12.6491 53.362 11.8916 53.6905 11.8916C54.019 11.8916 54.7332 12.2203 55.8615 12.8635C56.0615 12.9921 56.1615 13.1065 56.1615 13.2208C56.1615 13.3351 56.1329 13.4352 56.0901 13.5495C55.6044 14.7644 55.3473 17.5086 55.3188 21.7822C56.49 20.4243 58.0754 17.0655 60.0465 11.7058C60.2179 11.1769 60.4036 10.9054 60.5893 10.9054C60.7607 10.9054 61.2177 11.1055 61.9605 11.4914C62.3747 11.6343 62.6461 11.8058 62.7746 11.9773C62.9032 12.1488 62.9746 12.549 62.9746 13.1493C62.946 14.307 62.9174 15.2647 62.8746 16.0079C62.846 16.7511 62.8317 17.5658 62.8317 18.4519C62.8317 20.6816 62.9317 22.6826 63.1174 24.4692C63.1174 24.7122 63.046 24.8408 62.8889 24.8551C62.7889 24.8551 62.6032 24.7836 62.3175 24.6407C62.0319 24.4978 61.7176 24.3406 61.4034 24.169C61.0749 23.9975 60.8607 23.8975 60.7607 23.8689C60.6464 23.8403 60.5607 23.7689 60.5036 23.6545C60.4464 23.5402 60.375 23.0113 60.3179 22.0966C60.2179 20.9961 60.1465 20.2242 60.0894 19.7812C59.1467 21.6249 58.3325 22.9542 57.6327 23.7831C56.9328 24.6121 56.4043 25.0266 56.0472 25.0266L56.0044 25.0123Z" fill="#38932D"/>
<path d="M71.1446 28.414C71.0303 28.414 70.8446 28.3568 70.5589 28.2139C70.2733 28.0853 69.9876 27.9423 69.7019 27.7851C69.4163 27.6279 69.1735 27.4993 69.0021 27.3992C68.8307 27.2992 68.7021 27.1419 68.6021 26.9418C68.5022 26.7417 68.4165 26.4273 68.3165 25.9985C67.888 24.3834 67.6737 22.2681 67.6737 19.6668C67.6737 18.6949 67.7309 16.9226 67.8594 14.3785C67.988 11.8344 68.4736 8.46131 69.3449 4.25924C69.5591 3.05865 69.8448 2.45835 70.1876 2.45835C70.3161 2.45835 70.5161 2.52982 70.816 2.65845C71.1017 2.78709 71.3874 2.93001 71.673 3.07294C71.9587 3.21587 72.1587 3.33021 72.3015 3.40167C72.43 3.47314 72.5014 3.58748 72.5014 3.73041C72.5014 3.85904 72.4586 4.05914 72.3872 4.345C71.8159 6.14588 71.2731 9.50468 70.7589 14.4214C70.4732 17.0655 70.3304 19.2952 70.3304 21.1104L70.3733 23.2972C70.4018 24.4406 70.6446 25.7127 71.1017 27.1419C71.2445 27.5993 71.3159 27.928 71.3159 28.1424C71.3159 28.3282 71.2588 28.414 71.1303 28.414" fill="#38932D"/>
<path d="M76.8435 25.7127C76.6436 25.7127 76.3008 25.584 75.8009 25.3268C74.901 24.9266 74.4582 24.5835 74.4582 24.2977C74.4582 24.0404 74.7153 23.5545 75.2153 22.8684C76.2008 21.3963 77.3434 19.6525 78.6575 17.623C80.0858 15.3361 80.8 14.1641 80.8 14.0927C80.7 14.0927 80.4 14.1784 79.8859 14.3642C79.5716 14.4786 79.2574 14.6072 78.9432 14.7501C78.9003 14.7644 78.8575 14.793 78.8289 14.8073C78.8003 14.8216 78.7575 14.8359 78.7146 14.8359C78.4718 14.8359 78.1433 14.7501 77.7291 14.5786C77.3006 14.4071 76.9292 14.207 76.5864 13.9783C76.2436 13.7639 76.0865 13.5924 76.0865 13.4781C76.0865 13.3066 76.3865 13.1065 76.9864 12.8635C77.5863 12.6205 78.2719 12.3918 79.0289 12.206C79.8002 12.0059 80.4572 11.9202 80.9857 11.9202C81.1999 11.9202 81.5713 12.0202 82.0997 12.2203C82.6139 12.4204 83.0996 12.6634 83.5424 12.9207C83.9851 13.1922 84.2137 13.4352 84.2137 13.6496C84.2137 13.9497 84.0708 14.4071 83.7709 15.036C83.1996 16.208 81.8284 18.4377 79.6288 21.6964C79.6288 21.7536 79.6288 21.7822 79.6573 21.7822C80.6286 21.3963 81.9855 21.0961 83.728 20.896L84.9278 21.482C85.7705 21.8822 86.199 22.1966 86.199 22.4253C86.199 22.6111 85.8705 22.7255 85.2135 22.7827C83.2853 22.9827 81.0428 23.7403 78.4718 25.0409C77.672 25.4983 77.1435 25.727 76.8721 25.727" fill="#38932D"/>
<path d="M98.1826 25.3553C98.0826 25.3553 97.9684 25.3125 97.8113 25.241C97.6684 25.1695 97.4399 25.0409 97.1257 24.8837C96.8257 24.7122 96.3687 24.4835 95.7973 24.169C95.5402 22.9542 95.326 21.6821 95.1403 20.3529L94.4976 21.3248C93.3978 23.0399 92.2694 23.8975 91.1124 23.8975C90.3412 23.8975 89.4842 23.5259 88.5272 22.7969C88.0416 22.3539 87.7987 21.6249 87.7987 20.6102C87.7987 20.2385 87.8702 19.5382 88.0273 18.4948C88.1701 17.4515 88.6557 16.0936 89.4699 14.4214C90.284 12.7491 91.2124 11.5914 92.2551 10.9625C92.6407 10.791 93.0835 10.7196 93.5692 10.7196C95.0546 10.7196 96.1116 11.1055 96.6972 11.8773C96.7686 12.0059 96.9685 12.1488 97.2828 12.2918C97.597 12.4347 97.7541 12.6205 97.7541 12.8206C97.697 13.2637 97.6541 14.0784 97.6541 15.279C97.6541 18.5949 97.8255 21.239 98.1683 23.2114C98.3255 24.0404 98.3969 24.6264 98.3969 24.9551C98.3969 25.2267 98.3255 25.3696 98.1683 25.3696M90.7554 21.2247C90.8982 21.2247 91.1553 20.9246 91.5267 20.3386C92.2837 19.2666 92.955 18.066 93.5549 16.7225C94.2119 15.2075 94.6547 13.864 94.8689 12.692C94.8689 12.6777 94.8546 12.6634 94.8261 12.6634C94.0548 12.8492 93.2835 13.6496 92.4979 15.0503C91.7123 16.4653 91.141 18.0517 90.7839 19.8383C90.6697 20.3386 90.6125 20.6959 90.6125 20.9103C90.6125 21.0961 90.6554 21.1962 90.7554 21.2104V21.2247Z" fill="#38932D"/>
<path d="M104.839 27.7565C104.639 27.7565 104.253 27.5993 103.682 27.2849L102.51 26.656C102.253 26.2558 102.139 24.2262 102.139 20.5816C102.139 16.451 102.282 12.4776 102.582 8.61853C101.911 8.68999 101.439 8.80434 101.168 8.94726C101.096 9.00443 101.011 9.03302 100.939 9.03302C100.825 9.03302 100.668 8.99014 100.439 8.89009C99.1396 8.2755 98.4826 7.83243 98.4826 7.53228C98.4826 7.47511 98.554 7.36077 98.6825 7.20355C98.8111 7.03203 100.011 6.86052 102.253 6.64613C102.439 6.64613 102.596 6.58896 102.71 6.48891C102.825 6.38886 102.967 5.24544 103.125 3.07294C103.225 2.07245 103.31 1.3721 103.41 0.943321C103.51 0.514538 103.639 0.31444 103.81 0.31444C104.024 0.31444 104.639 0.586002 105.653 1.14342L105.91 1.28635C106.096 1.41498 106.195 1.55791 106.195 1.70084C106.195 1.87235 106.096 2.68704 105.91 4.15919C105.753 5.48842 105.681 6.21735 105.681 6.34598C105.681 6.41745 106.01 6.46032 106.667 6.48891C107.567 6.48891 108.509 6.77476 109.495 7.34647C109.881 7.56087 110.081 7.77526 110.081 7.97536V8.24692C107.01 8.2898 105.467 8.31838 105.467 8.36126C105.467 8.54707 105.424 9.10448 105.324 10.0478C105.039 13.6496 104.896 17.4229 104.896 21.3391C104.896 23.2114 104.939 24.7551 105.039 25.9556C105.096 26.4559 105.139 26.8418 105.139 27.1134C105.139 27.5135 105.039 27.7279 104.853 27.7422" fill="#38932D"/>
<path d="M113.694 25.4125C113.408 25.4125 113.137 25.3696 112.866 25.2982C110.28 24.5692 108.981 22.9256 108.981 20.3815C108.981 19.6668 109.052 18.9665 109.195 18.2947C109.338 17.623 109.538 16.7654 109.809 15.7077C109.381 15.3075 109.166 15.036 109.166 14.9073C109.166 14.7358 109.266 14.6644 109.466 14.6644C109.595 14.6644 109.738 14.7072 109.909 14.7787C110.081 14.7787 110.295 14.4786 110.552 13.864C111.652 11.3627 112.98 10.105 114.537 10.105C115.137 10.105 115.737 10.2765 116.351 10.6052C117.022 10.9054 117.522 11.2055 117.822 11.5057C118.122 11.8058 118.279 12.2489 118.279 12.8492C118.279 13.2351 118.222 13.6925 118.108 14.2356C117.879 15.7077 117.536 16.7654 117.108 17.4229C116.679 18.0803 116.122 18.4091 115.451 18.4091C114.923 18.4091 114.294 18.2376 113.58 17.8802C112.866 17.5372 112.48 17.3514 112.437 17.3514C112.252 17.6801 112.08 18.2947 111.937 19.1952C111.794 20.0956 111.723 20.9389 111.723 21.7393C111.723 22.8684 111.866 23.4544 112.152 23.5402C112.28 23.5402 112.423 23.4973 112.58 23.4258C114.508 22.8398 116.051 21.4677 117.194 19.3095C117.451 18.8093 117.679 18.5663 117.879 18.5663C118.051 18.5663 118.436 18.7378 119.036 19.0665C119.779 19.4096 120.15 19.6811 120.164 19.8669C120.164 19.9956 120.122 20.1528 120.022 20.3386C119.265 21.9823 118.179 23.2829 116.765 24.2548C115.68 25.0266 114.651 25.4125 113.68 25.4125M113.58 16.6368C113.737 16.6225 113.908 16.5224 114.094 16.3652C114.28 16.1508 114.48 15.7935 114.694 15.3075C114.908 14.8216 115.094 14.307 115.251 13.7782C115.408 13.2494 115.48 12.8349 115.48 12.5633C115.48 12.4204 115.451 12.3489 115.38 12.3489C115.208 12.3489 114.908 12.6205 114.494 13.1636C114.08 13.7068 113.694 14.307 113.337 14.9502C112.98 15.5934 112.809 16.0793 112.809 16.3795C112.809 16.5653 112.951 16.6511 113.251 16.6511H113.551L113.58 16.6368Z" fill="#38932D"/>
<path d="M135.833 24.1976C135.347 24.1976 134.862 24.0976 134.376 23.8975C133.519 23.5116 132.891 23.1828 132.505 22.9113C132.119 22.6397 131.891 22.3967 131.805 22.1681C131.72 21.9394 131.677 21.5964 131.662 21.139C131.662 20.2242 131.934 19.0379 132.462 17.6087C132.991 16.1794 133.748 14.7501 134.705 13.3494C135.605 12.0488 136.419 11.2913 137.176 11.0912C137.776 11.0912 138.404 11.2913 139.075 11.6772C139.747 12.0631 140.318 12.5062 140.789 13.0207C141.275 13.5209 141.504 13.9497 141.504 14.2785C141.504 14.4643 141.446 14.5643 141.318 14.5786C141.189 14.5786 140.961 14.5071 140.618 14.3785C140.275 14.2499 139.947 14.0927 139.604 13.9211C139.261 13.7496 139.033 13.5781 138.89 13.4066C138.847 13.3494 138.775 13.3208 138.704 13.3208C138.261 13.3208 137.519 14.2785 136.462 16.1937C135.062 18.7521 134.362 20.7674 134.362 22.2395C134.362 22.3539 134.362 22.411 134.39 22.4396C134.676 22.4396 135.219 22.1966 136.033 21.7107C136.847 21.2247 137.604 20.6816 138.29 20.0956L139.204 19.2666C140.775 19.9527 141.561 20.4243 141.561 20.6959C141.561 20.9389 141.318 21.2676 140.832 21.6964C138.975 23.3687 137.304 24.2119 135.819 24.2119" fill="#38932D"/>
<path d="M149.445 24.7122C149.188 24.7122 148.931 24.655 148.645 24.5407C147.131 23.826 146.388 23.3401 146.388 23.1114C146.388 22.9399 146.76 22.8684 147.517 22.8684L146.874 22.5683C145.36 21.7536 144.617 20.0956 144.617 17.5944C144.617 14.8502 145.46 12.9492 147.16 11.8773C147.474 11.7344 147.802 11.6629 148.145 11.6629C148.688 11.6629 149.402 11.863 150.259 12.2775C151.116 12.692 151.773 13.3637 152.187 14.2785C152.63 15.5076 152.844 16.7654 152.844 18.0375C152.844 18.4805 152.773 19.2523 152.644 20.3386C152.516 21.4391 152.073 22.5111 151.316 23.5545C150.773 24.3263 150.145 24.7122 149.431 24.7122M148.674 22.1395C148.674 22.1395 148.845 21.9965 149.002 21.7822C149.702 20.6816 150.059 19.1094 150.059 17.0655C150.059 16.0936 149.945 15.1503 149.731 14.2499C149.673 13.8783 149.574 13.6925 149.445 13.6639C149.331 13.6639 149.131 13.8354 148.831 14.1927C148.345 14.8359 147.974 15.6077 147.717 16.5081C147.46 17.4086 147.345 18.309 147.345 19.2095C147.345 19.4524 147.374 19.8669 147.417 20.4815C147.46 20.9103 147.602 21.2819 147.817 21.6249C148.031 21.968 148.317 22.1395 148.659 22.1395H148.674Z" fill="#38932D"/>
<path d="M167.599 24.2977C167.456 24.2977 167.256 24.2548 167.013 24.1548C166.756 24.069 166.113 23.7546 165.085 23.24C164.642 22.3396 164.285 21.4248 164.014 20.5244C163.742 19.6097 163.528 18.4091 163.371 16.9226L163.228 15.7649C162.5 17.6087 161.686 19.9241 160.757 22.7255C160.457 23.7546 160.157 24.2691 159.843 24.2691C159.586 24.2691 159.158 24.0976 158.529 23.7689C158.058 23.583 157.715 23.3972 157.501 23.1828C157.286 22.9827 157.158 22.6826 157.115 22.2681C157.001 21.4963 156.944 20.0241 156.944 17.8517C156.944 13.3066 157.072 11.034 157.344 11.034C157.444 11.034 157.644 11.0912 157.958 11.2198C158.272 11.3342 158.6 11.4771 158.929 11.6343C159.258 11.7915 159.515 11.9487 159.686 12.0917C159.743 12.1345 159.786 12.3061 159.8 12.6205L159.686 16.4367C161.3 12.692 162.4 10.8339 162.985 10.8339C163.185 10.8768 163.485 10.9911 163.885 11.1769C164.271 11.377 164.642 11.5771 164.985 11.7915C165.328 12.0059 165.528 12.1631 165.585 12.2918C165.642 12.4061 165.685 12.7063 165.742 13.1922C165.785 13.6782 165.842 14.2499 165.885 14.9359C166.028 17.1227 166.228 18.8664 166.471 20.1671C166.728 21.4677 167.07 22.5826 167.527 23.5259C167.67 23.7974 167.742 24.0118 167.742 24.1548C167.742 24.2262 167.699 24.2834 167.627 24.3263" fill="#38932D"/>
<path d="M186.653 29C186.138 29 185.639 28.9285 185.167 28.7856C183.368 28.1424 182.082 27.2992 181.325 26.2701C180.368 25.0123 179.882 22.9827 179.882 20.1671C179.882 17.8659 180.297 15.3075 181.125 12.4919C181.954 9.6762 183.21 7.00345 184.91 4.48793C186.538 2.12962 188.281 0.67176 190.138 0.10005C190.395 0.0428792 190.638 0.0142937 190.895 0.0142937C191.58 0.0142937 192.437 0.228685 193.451 0.67176C194.466 1.11484 195.194 1.71513 195.637 2.47265C195.908 3.05865 196.037 3.77329 196.037 4.60227C196.037 4.94529 195.98 5.55988 195.865 6.41745C195.751 7.27501 195.408 8.13258 194.808 9.00444C194.651 9.21883 194.48 9.33317 194.294 9.33317C194.094 9.33317 193.666 9.16166 193.023 8.83292C192.295 8.4899 191.937 8.20404 191.937 7.97536C191.937 7.86102 192.009 7.73238 192.152 7.58945C192.909 6.56038 193.28 5.20256 193.28 3.53031C193.28 2.38689 193.052 1.81518 192.594 1.81518C190.923 2.20109 189.381 3.40168 187.924 5.43125C186.338 7.6895 185.053 10.3051 184.067 13.278C183.082 16.2366 182.596 19.038 182.596 21.6678C182.596 23.9832 183.125 25.8556 184.167 27.2706L184.939 27.2134C186.524 27.0133 188.081 26.2272 189.609 24.8837C191.138 23.5259 192.409 21.8536 193.437 19.8383L193.466 19.7526C193.709 19.2523 193.894 19.0094 194.051 19.0094C194.194 19.0094 194.537 19.1523 195.065 19.4239C195.965 19.8526 196.408 20.1671 196.408 20.3672C196.408 20.4958 196.351 20.6816 196.237 20.9246C195.023 23.5973 193.323 25.727 191.123 27.2992C189.524 28.4426 188.024 29.0143 186.624 29.0143" fill="#38932D"/>
<path d="M203.321 28.414C203.207 28.414 203.021 28.3568 202.736 28.2139C202.45 28.0853 202.164 27.9423 201.879 27.7851C201.593 27.6279 201.35 27.4993 201.179 27.3992C201.007 27.2992 200.879 27.1419 200.779 26.9418C200.679 26.7417 200.593 26.4273 200.493 25.9985C200.065 24.3834 199.85 22.2681 199.85 19.6668C199.85 18.6949 199.907 16.9226 200.036 14.3785C200.165 11.8344 200.65 8.46131 201.521 4.25924C201.736 3.05865 202.021 2.45835 202.364 2.45835C202.493 2.45835 202.693 2.52982 202.993 2.65845C203.278 2.78709 203.564 2.93001 203.85 3.07294C204.135 3.21587 204.335 3.33021 204.478 3.40167C204.607 3.47314 204.678 3.58748 204.678 3.73041C204.678 3.85904 204.635 4.05914 204.564 4.345C203.992 6.14588 203.45 9.50468 202.935 14.4214C202.65 17.0655 202.507 19.2952 202.507 21.1104L202.55 23.2972C202.578 24.4406 202.821 25.7127 203.278 27.1419C203.421 27.5993 203.493 27.928 203.493 28.1424C203.493 28.3282 203.435 28.414 203.307 28.414" fill="#38932D"/>
<path d="M216.804 25.3553C216.704 25.3553 216.59 25.3125 216.433 25.241C216.276 25.1695 216.062 25.0409 215.748 24.8837C215.448 24.7122 214.991 24.4835 214.419 24.169C214.162 22.9542 213.948 21.6821 213.762 20.3529L213.119 21.3248C212.02 23.0399 210.891 23.8975 209.734 23.8975C208.963 23.8975 208.106 23.5259 207.149 22.7969C206.663 22.3539 206.421 21.6249 206.421 20.6102C206.421 20.2385 206.492 19.5382 206.649 18.4948C206.792 17.4515 207.278 16.0936 208.092 14.4214C208.906 12.7491 209.834 11.5914 210.877 10.9625C211.263 10.791 211.705 10.7196 212.191 10.7196C213.676 10.7196 214.733 11.1055 215.319 11.8773C215.405 12.0059 215.59 12.1488 215.905 12.2918C216.219 12.4347 216.376 12.6205 216.376 12.8206C216.319 13.2637 216.276 14.0784 216.276 15.279C216.276 18.5949 216.447 21.239 216.79 23.2114C216.947 24.0404 217.033 24.6264 217.033 24.9551C217.033 25.2267 216.947 25.3696 216.79 25.3696M209.377 21.2247C209.52 21.2247 209.777 20.9246 210.149 20.3386C210.906 19.2666 211.577 18.066 212.177 16.7225C212.834 15.2075 213.277 13.864 213.491 12.692C213.491 12.6777 213.476 12.6634 213.448 12.6634C212.677 12.8492 211.905 13.6496 211.12 15.0503C210.334 16.4653 209.763 18.0517 209.406 19.8383C209.292 20.3386 209.234 20.6959 209.234 20.9103C209.234 21.0961 209.277 21.1962 209.377 21.2104V21.2247Z" fill="#38932D"/>
<path d="M224.046 25.9271C223.603 25.9271 223.118 25.827 222.561 25.6269C222.018 25.4268 221.546 25.1981 221.147 24.9409C220.761 24.6836 220.561 24.4835 220.561 24.3549V24.0833H221.761C222.832 24.0118 223.689 23.7403 224.346 23.2829C225.003 22.8255 225.317 22.3539 225.317 21.8679C225.317 21.4963 225.046 21.2104 224.489 20.9818C221.804 20.0956 220.461 18.9951 220.461 17.6658C220.461 16.9226 220.718 15.9936 221.232 14.8645C221.746 13.7353 222.361 12.7206 223.046 11.8201C223.732 10.934 224.346 10.4766 224.889 10.4766C225.16 10.4766 225.503 10.5909 225.946 10.8053C227.36 11.52 228.06 12.3204 228.06 13.2065C228.06 13.4495 227.96 13.5781 227.76 13.5924C227.603 13.5924 227.274 13.4781 226.774 13.2351C226.446 13.0636 226.246 12.9921 226.16 12.9921C226.003 12.9921 225.746 13.2351 225.389 13.7353C223.946 15.7363 223.218 17.3371 223.218 18.5377C223.218 19.1094 223.432 19.4524 223.86 19.5811C224.289 19.7097 224.789 19.9241 225.346 20.1957C225.903 20.4815 226.417 20.7817 226.874 21.0818C227.331 21.382 227.645 21.6392 227.774 21.8393C227.917 22.1538 227.988 22.4682 227.988 22.7827C227.988 23.1828 227.817 23.6545 227.474 24.1976C227.174 24.6407 226.703 25.0409 226.074 25.3839C225.432 25.727 224.76 25.9128 224.032 25.9128" fill="#38932D"/>
<path d="M235.515 25.4125C235.23 25.4125 234.958 25.3696 234.687 25.2982C232.102 24.5692 230.802 22.9256 230.802 20.3815C230.802 19.6668 230.873 18.9665 231.016 18.2947C231.159 17.623 231.359 16.7654 231.63 15.7077C231.202 15.3075 230.988 15.036 230.988 14.9073C230.988 14.7358 231.088 14.6644 231.288 14.6644C231.416 14.6644 231.559 14.7072 231.73 14.7787C231.902 14.7787 232.116 14.4786 232.373 13.864C233.473 11.3627 234.801 10.105 236.358 10.105C236.958 10.105 237.558 10.2765 238.172 10.6052C238.843 10.9054 239.343 11.2055 239.643 11.5057C239.943 11.8058 240.1 12.2489 240.1 12.8492C240.1 13.2351 240.043 13.6925 239.929 14.2356C239.686 15.7077 239.358 16.7654 238.929 17.4229C238.501 18.0803 237.944 18.4091 237.272 18.4091C236.744 18.4091 236.115 18.2376 235.401 17.8802C234.687 17.5372 234.301 17.3514 234.259 17.3514C234.073 17.6801 233.901 18.2947 233.759 19.1952C233.616 20.0956 233.544 20.9389 233.544 21.7393C233.544 22.8684 233.687 23.4544 233.973 23.5402C234.101 23.5402 234.244 23.4973 234.401 23.4258C236.33 22.8398 237.872 21.4677 239.015 19.3095C239.272 18.8093 239.5 18.5663 239.7 18.5663C239.872 18.5663 240.257 18.7378 240.857 19.0665C241.6 19.4096 241.971 19.6811 241.986 19.8669C241.986 19.9956 241.943 20.1528 241.843 20.3386C241.086 21.9823 240 23.2829 238.586 24.2548C237.501 25.0266 236.472 25.4125 235.501 25.4125M235.401 16.6368C235.558 16.6225 235.73 16.5224 235.915 16.3652C236.101 16.1508 236.301 15.7935 236.515 15.3075C236.73 14.8216 236.915 14.307 237.072 13.7782C237.229 13.2494 237.301 12.8349 237.301 12.5633C237.301 12.4204 237.272 12.3489 237.201 12.3489C237.029 12.3489 236.73 12.6205 236.315 13.1636C235.901 13.7068 235.515 14.307 235.158 14.9502C234.801 15.5934 234.63 16.0793 234.63 16.3795C234.63 16.5653 234.773 16.6511 235.073 16.6511H235.373L235.401 16.6368Z" fill="#38932D"/>
</g>
<defs>
<clipPath id="clip0_157_348">
<rect width="242" height="29" fill="white"/>
</clipPath>
</defs>
</svg>
