<svg width="44" height="35" viewBox="0 0 44 35" fill="none" xmlns="http://www.w3.org/2000/svg">
<path fill-rule="evenodd" clip-rule="evenodd" d="M10.93 21.91C11.75 23.73 12.46 25.68 13.16 27.82C14.34 27.43 15.57 27.05 16.75 26.65C16.18 24.65 15.41 22.68 14.53 20.75C13.33 21.14 12.14 21.51 10.93 21.9M11.2 33.73C9.79 29.81 7.33 26.71 3.79 25.16C10.41 24.97 13.35 29.73 14.56 33.37L13.44 28.66L17 27.5L17.2 28.26L17.71 30.26L20.21 0.8H25.17L26.47 15.56L19.14 33.74H11.2V33.73ZM43.49 34.57H36.82L32.49 23.81L28.16 34.57H21.49L29.14 15.55H35.86L43.51 34.57H43.49ZM0 34.57H6.85H19.79V34.53L27.36 15.74L25.97 0H19.45L18.2 14.76L18.14 15.56H11.94C12.77 17 13.52 18.46 14.19 19.93L10.57 21.1C9.72 19.12 8.61 17.42 7.66 15.56L0 34.57Z" fill="white"/>
</svg>
