<svg id="Layer_1" data-name="Layer 1" xmlns="http://www.w3.org/2000/svg" xmlns:xlink="http://www.w3.org/1999/xlink" viewBox="0 0 32 32"><defs><style>.cls-1{fill:none;}.cls-2{clip-path:url(#clip-path);}.cls-3,.cls-4{fill:#010101;}.cls-4{fill-rule:evenodd;}</style><clipPath id="clip-path"><rect class="cls-1" width="32" height="32.08"/></clipPath></defs><title>whatsaap</title><g class="cls-2"><path class="cls-3" d="M0,32.08,2.3,23.5a15.84,15.84,0,1,1,6.33,6.28Zm9.06-5.53.54.33a12.93,12.93,0,1,0-4.41-4.37l.33.55L4.23,27.85l4.82-1.29Z"/><path class="cls-4" d="M22.05,18a2.71,2.71,0,0,0-2.27-.51c-.58.24-1,1.16-1.35,1.64a.57.57,0,0,1-.73.16,10.3,10.3,0,0,1-5.13-4.39.63.63,0,0,1,.08-.86,3.46,3.46,0,0,0,.93-1.51,3.23,3.23,0,0,0-.42-1.79,4.14,4.14,0,0,0-1.32-2,1.8,1.8,0,0,0-2,.29,4,4,0,0,0-1.39,3.16,4.22,4.22,0,0,0,.13,1,8.51,8.51,0,0,0,1,2.21,16.83,16.83,0,0,0,1,1.53A15.31,15.31,0,0,0,15,21a12.83,12.83,0,0,0,2.72,1.3,6,6,0,0,0,3.17.5,3.82,3.82,0,0,0,2.87-2.13,1.86,1.86,0,0,0,.13-1.09c-.16-.75-1.18-1.2-1.78-1.56Z"/></g></svg>